<mxfile host="app.diagrams.net" modified="2021-05-17T03:17:16.348Z" agent="5.0 (Windows NT 10.0; Win64; x64) AppleWebKit/537.36 (KHTML, like Gecko) Chrome/90.0.4430.212 Safari/537.36" etag="wsJxPyjV23rz7j1AmAco" version="14.6.13" type="github">
  <diagram id="2TDqIaN0QVCuJUiBHfr4" name="第 1 页">
    <mxGraphModel dx="1246" dy="536" grid="1" gridSize="10" guides="1" tooltips="1" connect="1" arrows="1" fold="1" page="1" pageScale="1" pageWidth="1169" pageHeight="827" math="0" shadow="0">
      <root>
        <mxCell id="0" />
        <mxCell id="1" parent="0" />
        <mxCell id="fBJX7RN3hF72DbqsZarO-4" value="" style="edgeStyle=orthogonalEdgeStyle;rounded=0;orthogonalLoop=1;jettySize=auto;html=1;" edge="1" parent="1" source="fBJX7RN3hF72DbqsZarO-1" target="fBJX7RN3hF72DbqsZarO-3">
          <mxGeometry relative="1" as="geometry" />
        </mxCell>
        <mxCell id="fBJX7RN3hF72DbqsZarO-1" value="1HZ/TIMER" style="rounded=0;whiteSpace=wrap;html=1;" vertex="1" parent="1">
          <mxGeometry x="520" y="250" width="120" height="60" as="geometry" />
        </mxCell>
        <mxCell id="fBJX7RN3hF72DbqsZarO-3" value="循环累加器" style="whiteSpace=wrap;html=1;rounded=0;" vertex="1" parent="1">
          <mxGeometry x="520" y="390" width="120" height="60" as="geometry" />
        </mxCell>
      </root>
    </mxGraphModel>
  </diagram>
</mxfile>
